<svg xmlns="http://www.w3.org/2000/svg" version="1.1" xmlns:xlink="http://www.w3.org/1999/xlink" xmlns:svgjs="http://svgjs.dev/svgjs" width="50" height="300" viewBox="0 0 1500 1500"><rect width="1500" height="1500" fill="#ffffff"></rect><g transform="matrix(0.6666666666666666,0,0,0.6666666666666666,249.39436519522388,624.0158414066332)"><svg viewBox="0 0 396 99" data-background-color="#ffffff" preserveAspectRatio="xMidYMid meet" height="375" width="1500" xmlns="http://www.w3.org/2000/svg" xmlns:xlink="http://www.w3.org/1999/xlink"><g id="tight-bounds" transform="matrix(1,0,0,1,0.24008861730862918,0.38972680297328566)"><svg viewBox="0 0 395.52 98.22037083333333" height="98.22037083333333" width="395.52"><g><svg viewBox="0 0 395.52 98.22037083333333" height="98.22037083333333" width="395.52"><g><svg viewBox="0 0 395.52 98.22037083333333" height="98.22037083333333" width="395.52"><g id="textblocktransform"><svg viewBox="0 0 395.52 98.22037083333333" height="98.22037083333333" width="395.52" id="textblock"><g><svg viewBox="0 0 395.52 98.22037083333333" height="98.22037083333333" width="395.52"><path d="M394.594 21.066C392.735 10.871 387.435 8.037 387.435 8.037 371.165-2.464 350.86-0.201 332.619 1.308 300.414 1.369 268.339 3.612 236.208 4.815 168.767 4.999 100.749 1.981 33.643 9.423 27.339 11.707-6.54 9.872 1.121 22.371 3.129 27.571 10.456 33.341 10.232 38.113 11.236 38.949 12.631 37.032 13.226 38.235 15.309 41.477 18.711 39.948 21.501 41.865 17.614 46.983 20.403 51.244 23.062 55.71 18.377 56.872 12.371 56.322 9.675 60.175 9.396 62.969 7.89 62.439 6.235 62.316 5.026 62.235 2.59 62.541 2.999 63.417 4.394 66.415-1.594 68.148 2.162 71.084-0.422 74.265 3.948 77.018 3.353 80.464 3.278 81.157 3.687 81.748 4.338 81.912 7.22 82.788 3.018 84.501 3.464 86.357 33.029 99.04 65.104 90.272 95.394 96.103 103.259 92.025 97.346 97.551 100.489 96.695 102.943 95.696 104.728 99.835 107.499 97.49 107.927 96.817 107.276 95.227 108.8 95.532 109.6 95.696 110.307 95.655 110.418 94.717 110.586 93.31 109.117 94.187 108.726 93.453 112.947 89.742 111.906 98.571 115.866 98.204 115.68 97.123 114.528 95.573 116.889 95.777 119.232 94.227 119.306 92.943 121.389 96.43 121.463 97.184 121.835 97.714 122.43 98.081 128.938 94.289 135.409 99.427 142.233 97.714 146.417 95.838 150.433 98.734 154.672 98.02 156.16 97.449 157.666 96.43 159.098 98.142 176.632 98.509 195.319 96.98 211.943 98.204 256.364 95.92 303.836 99.142 350.674 96.124 361.719 94.961 373.192 93.31 383.958 91.984 383.958 91.984 392.679 88.355 392.679 72.043S394.538 57.769 394.817 44.781C395.096 31.792 396.398 31.262 394.538 21.066Z" opacity="1" fill="#000000" data-fill-palette-color="tertiary"></path><g transform="matrix(1,0,0,1,55.76832,26.230666666666668)"><svg width="283.98335999999995" viewBox="0.42 -33.33 213.31 34.37" height="45.75903749999999" data-palette-color="#ffffff"><path d="M19.72-19.24L12.47 1.04 0.42-31.25 4.44-31.25 11.53-12.5Q11.91-11.53 12.15-10.64 12.4-9.76 12.67-8.54L12.67-8.54Q12.95-9.76 13.21-10.64 13.47-11.53 13.82-12.5L13.82-12.5 20.97-32.29 28.09-12.5Q28.4-11.63 28.7-10.75 28.99-9.86 29.24-8.54L29.24-8.54Q29.51-9.86 29.79-10.75 30.07-11.63 30.42-12.5L30.42-12.5 37.5-31.25 41.25-31.25 29.24 1.04 22.01-19.24Q21.7-20.14 21.42-20.99 21.15-21.84 20.87-23.16L20.87-23.16Q20.59-21.84 20.31-20.99 20.03-20.14 19.72-19.24L19.72-19.24ZM53.92 0.28L53.92 0.28Q51.07 0.28 48.71-1.16 46.35-2.6 44.95-5.03 43.54-7.47 43.54-10.42L43.54-10.42Q43.54-13.37 44.95-15.8 46.35-18.23 48.71-19.67 51.07-21.11 53.92-21.11L53.92-21.11Q56.07-21.11 57.97-20.31 59.86-19.51 61.25-18.09L61.25-18.09 61.25-20.83 64.72-20.83 64.72 0 61.25 0 61.25-2.74Q59.86-1.35 57.97-0.54 56.07 0.28 53.92 0.28ZM54.41-3.13L54.41-3.13Q56.39-3.13 58-4.11 59.62-5.1 60.57-6.75 61.53-8.4 61.53-10.42L61.53-10.42Q61.53-12.43 60.57-14.08 59.62-15.73 58-16.72 56.39-17.71 54.41-17.71L54.41-17.71Q52.43-17.71 50.81-16.72 49.2-15.73 48.24-14.08 47.29-12.43 47.29-10.42L47.29-10.42Q47.29-8.4 48.24-6.75 49.2-5.1 50.81-4.11 52.43-3.13 54.41-3.13ZM89.51-20.83L78.99 1.04 68.47-20.83 72.74-20.83 76.97-11.81Q77.56-10.59 78.09-9.41 78.61-8.23 79.09-6.53L79.09-6.53Q79.61-8.23 80.15-9.43 80.69-10.63 81.25-11.81L81.25-11.81 85.52-20.83 89.51-20.83ZM103.19 0.42L103.19 0.42Q99.92 0.42 97.34-1.04 94.75-2.5 93.27-5.02 91.8-7.53 91.8-10.63L91.8-10.63Q91.8-13.58 93.22-15.99 94.65-18.4 97.06-19.83 99.47-21.25 102.39-21.25L102.39-21.25Q105.27-21.25 107.67-19.88 110.06-18.51 111.49-16.18 112.91-13.85 112.91-10.9L112.91-10.9 112.91-9.38 99.3-9.38Q98.4-9.38 97.46-9.44 96.52-9.51 95.62-9.65L95.62-9.65Q96-6.88 98.13-5 100.27-3.13 103.22-3.13L103.22-3.13Q105.2-3.13 106.9-4.03 108.6-4.93 109.65-6.42L109.65-6.42 110.69-2.15Q109.19-0.94 107.27-0.26 105.34 0.42 103.19 0.42ZM95.51-12.19L95.51-12.19Q97.39-12.5 99.3-12.5L99.3-12.5 106.21-12.5Q106.97-12.5 107.72-12.45 108.46-12.4 109.23-12.33L109.23-12.33Q108.74-14.76 106.8-16.34 104.85-17.92 102.39-17.92L102.39-17.92Q99.85-17.92 97.94-16.23 96.03-14.55 95.51-12.19ZM121.66 0L117.91 0 117.91-33.33 121.66-33.33 121.66 0ZM138.25 0.42L138.25 0.42Q134.99 0.42 132.4-1.04 129.81-2.5 128.34-5.02 126.86-7.53 126.86-10.63L126.86-10.63Q126.86-13.58 128.29-15.99 129.71-18.4 132.12-19.83 134.54-21.25 137.45-21.25L137.45-21.25Q140.33-21.25 142.73-19.88 145.13-18.51 146.55-16.18 147.97-13.85 147.97-10.9L147.97-10.9 147.97-9.38 134.36-9.38Q133.46-9.38 132.52-9.44 131.58-9.51 130.68-9.65L130.68-9.65Q131.06-6.88 133.2-5 135.33-3.13 138.29-3.13L138.29-3.13Q140.27-3.13 141.97-4.03 143.67-4.93 144.71-6.42L144.71-6.42 145.75-2.15Q144.26-0.94 142.33-0.26 140.4 0.42 138.25 0.42ZM130.58-12.19L130.58-12.19Q132.45-12.5 134.36-12.5L134.36-12.5 141.27-12.5Q142.04-12.5 142.78-12.45 143.53-12.4 144.29-12.33L144.29-12.33Q143.81-14.76 141.86-16.34 139.92-17.92 137.45-17.92L137.45-17.92Q134.92-17.92 133.01-16.23 131.1-14.55 130.58-12.19ZM161.89 0.28L161.89 0.28Q159.05 0.28 156.69-1.16 154.33-2.6 152.92-5.03 151.51-7.47 151.51-10.42L151.51-10.42Q151.51-13.37 152.92-15.8 154.33-18.23 156.69-19.67 159.05-21.11 161.89-21.11L161.89-21.11Q164.05-21.11 165.94-20.31 167.83-19.51 169.22-18.09L169.22-18.09 169.22-20.83 172.69-20.83 172.69 0 169.22 0 169.22-2.74Q167.83-1.35 165.94-0.54 164.05 0.28 161.89 0.28ZM162.38-3.13L162.38-3.13Q164.36-3.13 165.97-4.11 167.59-5.1 168.54-6.75 169.5-8.4 169.5-10.42L169.5-10.42Q169.5-12.43 168.54-14.08 167.59-15.73 165.97-16.72 164.36-17.71 162.38-17.71L162.38-17.71Q160.4-17.71 158.79-16.72 157.17-15.73 156.22-14.08 155.26-12.43 155.26-10.42L155.26-10.42Q155.26-8.4 156.22-6.75 157.17-5.1 158.79-4.11 160.4-3.13 162.38-3.13ZM183.11 0L179.36 0 179.36-20.83 182.83-20.83 182.83-17.01Q183.94-18.85 185.78-19.95 187.62-21.04 190.16-21.04L190.16-21.04 191.09-17.29Q190.43-17.5 189.57-17.5L189.57-17.5Q186.65-17.5 184.88-15.64 183.11-13.78 183.11-10.35L183.11-10.35 183.11 0ZM198.73 0L194.98 0 194.98-20.83 198.45-20.83 198.45-17.47Q199.6-19.31 201.42-20.28 203.24-21.25 205.36-21.25L205.36-21.25Q207.58-21.25 209.48-20.16 211.37-19.06 212.55-17 213.73-14.93 213.73-11.98L213.73-11.98 213.73 0 209.98 0 209.98-11.46Q209.98-13.92 208.5-15.82 207.03-17.71 204.36-17.71L204.36-17.71Q202.17-17.71 200.45-16.13 198.73-14.55 198.73-11.56L198.73-11.56 198.73 0Z" opacity="1" transform="matrix(1,0,0,1,0,0)" fill="#ffffff" class="wordmark-text-0" data-fill-palette-color="quaternary" id="text-0"></path></svg></g></svg></g></svg></g></svg></g><g></g></svg></g><defs></defs></svg><rect width="395.52" height="98.22037083333333" fill="none" stroke="none" visibility="hidden"></rect></g></svg></g></svg>